<mxfile host="65bd71144e" scale="2" border="0">
    <diagram id="yUE5iZ8mLl_cM_Y-DyXM" name="Page-1">
        <mxGraphModel dx="1570" dy="654" grid="1" gridSize="10" guides="1" tooltips="1" connect="1" arrows="1" fold="1" page="1" pageScale="1" pageWidth="827" pageHeight="1169" math="0" shadow="0">
            <root>
                <mxCell id="0"/>
                <mxCell id="1" parent="0"/>
                <mxCell id="239" value="&lt;font style=&quot;font-size: 10px&quot;&gt;ena&lt;/font&gt;" style="text;html=1;resizable=0;autosize=1;align=center;verticalAlign=middle;points=[];fillColor=none;strokeColor=none;rounded=0;dashed=1;" vertex="1" parent="1">
                    <mxGeometry x="780" y="320" width="30" height="20" as="geometry"/>
                </mxCell>
                <mxCell id="235" value="" style="rounded=0;whiteSpace=wrap;html=1;fontSize=12;strokeWidth=1;fillColor=none;gradientColor=none;" vertex="1" parent="1">
                    <mxGeometry x="780" y="284" width="30" height="53" as="geometry"/>
                </mxCell>
                <mxCell id="181" value="" style="rounded=1;whiteSpace=wrap;html=1;fillColor=none;dashed=1;" vertex="1" parent="1">
                    <mxGeometry x="180" y="294" width="230" height="126" as="geometry"/>
                </mxCell>
                <mxCell id="11" value="" style="rounded=0;whiteSpace=wrap;html=1;gradientColor=none;fillColor=none;strokeWidth=3;" parent="1" vertex="1">
                    <mxGeometry x="160" y="100" width="700" height="360" as="geometry"/>
                </mxCell>
                <mxCell id="5" value="" style="rounded=0;whiteSpace=wrap;html=1;fillColor=none;fontColor=#333333;strokeColor=#666666;" parent="1" vertex="1">
                    <mxGeometry x="360" y="181" width="200" height="72" as="geometry"/>
                </mxCell>
                <mxCell id="41" value="&lt;span style=&quot;font-size: 19px&quot;&gt;rx_shift_reg.vhd&lt;/span&gt;" style="text;html=1;resizable=0;autosize=1;align=center;verticalAlign=middle;points=[];fillColor=none;strokeColor=none;rounded=0;" parent="1" vertex="1">
                    <mxGeometry x="350" y="70" width="150" height="20" as="geometry"/>
                </mxCell>
                <mxCell id="44" style="edgeStyle=none;html=1;endArrow=none;endFill=0;startArrow=blockThin;startFill=1;" parent="1" edge="1">
                    <mxGeometry relative="1" as="geometry">
                        <mxPoint x="630" y="204" as="sourcePoint"/>
                        <mxPoint x="160" y="429" as="targetPoint"/>
                        <Array as="points">
                            <mxPoint x="630" y="429"/>
                        </Array>
                    </mxGeometry>
                </mxCell>
                <mxCell id="77" value="" style="endArrow=blockThin;html=1;rounded=1;fontSize=10;strokeColor=default;strokeWidth=1;entryX=0;entryY=0.5;entryDx=0;entryDy=0;endFill=1;" parent="1" edge="1">
                    <mxGeometry width="50" height="50" relative="1" as="geometry">
                        <mxPoint x="120" y="140" as="sourcePoint"/>
                        <mxPoint x="160" y="140.0000000000001" as="targetPoint"/>
                    </mxGeometry>
                </mxCell>
                <mxCell id="78" value="&lt;font style=&quot;font-size: 12px&quot;&gt;clk&lt;/font&gt;" style="edgeLabel;html=1;align=center;verticalAlign=middle;resizable=0;points=[];fontSize=10;" parent="77" vertex="1" connectable="0">
                    <mxGeometry x="-0.5695" y="1" relative="1" as="geometry">
                        <mxPoint x="-14" y="-9" as="offset"/>
                    </mxGeometry>
                </mxCell>
                <mxCell id="81" value="" style="endArrow=blockThin;html=1;rounded=1;fontSize=10;strokeColor=default;strokeWidth=1;entryX=0;entryY=0.5;entryDx=0;entryDy=0;endFill=1;" parent="1" edge="1">
                    <mxGeometry width="50" height="50" relative="1" as="geometry">
                        <mxPoint x="120" y="429" as="sourcePoint"/>
                        <mxPoint x="160" y="429" as="targetPoint"/>
                    </mxGeometry>
                </mxCell>
                <mxCell id="82" value="&lt;font style=&quot;font-size: 12px&quot;&gt;rx_complete&lt;/font&gt;" style="edgeLabel;html=1;align=center;verticalAlign=middle;resizable=0;points=[];fontSize=10;" parent="81" vertex="1" connectable="0">
                    <mxGeometry x="-0.5695" y="1" relative="1" as="geometry">
                        <mxPoint x="-22" y="-9" as="offset"/>
                    </mxGeometry>
                </mxCell>
                <mxCell id="113" style="edgeStyle=none;rounded=1;html=1;exitX=0;exitY=0.105;exitDx=0;exitDy=0;entryX=0;entryY=0.25;entryDx=0;entryDy=0;fontSize=12;endArrow=blockThin;endFill=1;strokeColor=default;strokeWidth=1;exitPerimeter=0;" parent="1" edge="1">
                    <mxGeometry relative="1" as="geometry">
                        <mxPoint x="117.50999999999999" y="199.00000000000003" as="sourcePoint"/>
                        <mxPoint x="160" y="199.08" as="targetPoint"/>
                    </mxGeometry>
                </mxCell>
                <mxCell id="114" value="rx" style="edgeLabel;html=1;align=center;verticalAlign=middle;resizable=0;points=[];" parent="113" vertex="1" connectable="0">
                    <mxGeometry x="-0.5852" relative="1" as="geometry">
                        <mxPoint y="-9" as="offset"/>
                    </mxGeometry>
                </mxCell>
                <mxCell id="139" value="" style="endArrow=blockThin;html=1;rounded=1;fontSize=10;strokeColor=default;strokeWidth=1;entryX=0;entryY=0.5;entryDx=0;entryDy=0;endFill=1;" edge="1" parent="1">
                    <mxGeometry width="50" height="50" relative="1" as="geometry">
                        <mxPoint x="120" y="359" as="sourcePoint"/>
                        <mxPoint x="160" y="359" as="targetPoint"/>
                    </mxGeometry>
                </mxCell>
                <mxCell id="140" value="&lt;font style=&quot;font-size: 12px&quot;&gt;baud_rate_clk&lt;/font&gt;" style="edgeLabel;html=1;align=center;verticalAlign=middle;resizable=0;points=[];fontSize=10;" vertex="1" connectable="0" parent="139">
                    <mxGeometry x="-0.5695" y="1" relative="1" as="geometry">
                        <mxPoint x="-26" y="-12" as="offset"/>
                    </mxGeometry>
                </mxCell>
                <mxCell id="158" value="" style="endArrow=blockThin;html=1;rounded=1;fontSize=10;strokeColor=default;strokeWidth=1;entryX=0;entryY=0.25;entryDx=0;entryDy=0;endFill=1;exitX=0.5;exitY=0;exitDx=0;exitDy=0;" edge="1" parent="1" source="5" target="190">
                    <mxGeometry x="0.1" width="50" height="50" relative="1" as="geometry">
                        <mxPoint x="689" y="263.5799999999999" as="sourcePoint"/>
                        <mxPoint x="709" y="263.52" as="targetPoint"/>
                        <mxPoint as="offset"/>
                        <Array as="points">
                            <mxPoint x="460" y="163"/>
                        </Array>
                    </mxGeometry>
                </mxCell>
                <mxCell id="168" value="" style="endArrow=blockThin;html=1;rounded=0;strokeColor=default;strokeWidth=1;exitX=-0.001;exitY=0.72;exitDx=0;exitDy=0;endFill=1;exitPerimeter=0;entryX=0;entryY=0.25;entryDx=0;entryDy=0;" edge="1" parent="1" source="11" target="161">
                    <mxGeometry width="50" height="50" relative="1" as="geometry">
                        <mxPoint x="380" y="390" as="sourcePoint"/>
                        <mxPoint x="550" y="390" as="targetPoint"/>
                    </mxGeometry>
                </mxCell>
                <mxCell id="172" value="" style="shape=or;whiteSpace=wrap;html=1;fillColor=#FFFFFF;" vertex="1" parent="1">
                    <mxGeometry x="330" y="328" width="30" height="42" as="geometry"/>
                </mxCell>
                <mxCell id="173" value="" style="endArrow=blockThin;html=1;rounded=0;strokeColor=default;strokeWidth=1;endFill=1;entryX=0;entryY=0.25;entryDx=0;entryDy=0;entryPerimeter=0;" edge="1" parent="1" target="172">
                    <mxGeometry width="50" height="50" relative="1" as="geometry">
                        <mxPoint x="210" y="360" as="sourcePoint"/>
                        <mxPoint x="250" y="370" as="targetPoint"/>
                        <Array as="points">
                            <mxPoint x="210" y="338"/>
                        </Array>
                    </mxGeometry>
                </mxCell>
                <mxCell id="165" value="" style="group" vertex="1" connectable="0" parent="1">
                    <mxGeometry x="240" y="346" width="38" height="53" as="geometry"/>
                </mxCell>
                <mxCell id="162" value="&lt;font style=&quot;font-size: 10px&quot;&gt;Q&lt;/font&gt;" style="text;html=1;resizable=0;autosize=1;align=center;verticalAlign=middle;points=[];fillColor=none;strokeColor=none;rounded=0;fontSize=12;" vertex="1" parent="165">
                    <mxGeometry x="18" y="2.5" width="20" height="20" as="geometry"/>
                </mxCell>
                <mxCell id="163" value="&lt;font style=&quot;font-size: 10px&quot;&gt;D&lt;/font&gt;" style="text;html=1;resizable=0;autosize=1;align=center;verticalAlign=middle;points=[];fillColor=none;strokeColor=none;rounded=0;fontSize=12;" vertex="1" parent="165">
                    <mxGeometry y="2.5" width="20" height="20" as="geometry"/>
                </mxCell>
                <mxCell id="161" value="" style="rounded=0;whiteSpace=wrap;html=1;fontSize=12;strokeWidth=1;fillColor=none;gradientColor=none;" vertex="1" parent="165">
                    <mxGeometry x="4" width="30" height="53" as="geometry"/>
                </mxCell>
                <mxCell id="164" value="" style="triangle;whiteSpace=wrap;html=1;fontSize=10;strokeWidth=1;fillColor=none;gradientColor=none;" vertex="1" parent="165">
                    <mxGeometry x="4" y="35.5" width="10" height="7.88" as="geometry"/>
                </mxCell>
                <mxCell id="174" value="" style="ellipse;whiteSpace=wrap;html=1;aspect=fixed;fillColor=#FFFFFF;" vertex="1" parent="1">
                    <mxGeometry x="320" y="354" width="10" height="10" as="geometry"/>
                </mxCell>
                <mxCell id="177" value="" style="endArrow=blockThin;html=1;rounded=1;fontSize=10;strokeColor=default;strokeWidth=1;entryX=0;entryY=0.5;entryDx=0;entryDy=0;endFill=1;exitX=1;exitY=0.25;exitDx=0;exitDy=0;" edge="1" parent="1" source="161" target="174">
                    <mxGeometry width="50" height="50" relative="1" as="geometry">
                        <mxPoint x="278" y="360.05999999999983" as="sourcePoint"/>
                        <mxPoint x="298" y="360.0000000000001" as="targetPoint"/>
                    </mxGeometry>
                </mxCell>
                <mxCell id="179" style="edgeStyle=none;html=1;entryX=1;entryY=0.5;entryDx=0;entryDy=0;endArrow=none;endFill=0;startArrow=blockThin;startFill=1;entryPerimeter=0;" edge="1" parent="1" target="172">
                    <mxGeometry relative="1" as="geometry">
                        <mxPoint x="360" y="216" as="sourcePoint"/>
                        <mxPoint x="670.0000000000002" y="375" as="targetPoint"/>
                        <Array as="points">
                            <mxPoint x="280" y="216"/>
                            <mxPoint x="280" y="270"/>
                            <mxPoint x="280" y="310"/>
                            <mxPoint x="345" y="310"/>
                            <mxPoint x="400" y="310"/>
                            <mxPoint x="400" y="349"/>
                        </Array>
                    </mxGeometry>
                </mxCell>
                <mxCell id="180" value="enable" style="edgeLabel;html=1;align=center;verticalAlign=middle;resizable=0;points=[];" vertex="1" connectable="0" parent="179">
                    <mxGeometry x="-0.698" relative="1" as="geometry">
                        <mxPoint x="66" y="94" as="offset"/>
                    </mxGeometry>
                </mxCell>
                <mxCell id="182" value="Rising edge one shot pulse" style="text;html=1;resizable=0;autosize=1;align=center;verticalAlign=middle;points=[];fillColor=none;strokeColor=none;rounded=0;dashed=1;" vertex="1" parent="1">
                    <mxGeometry x="249" y="400" width="160" height="20" as="geometry"/>
                </mxCell>
                <mxCell id="183" value="" style="endArrow=blockThin;html=1;rounded=1;fontSize=10;strokeColor=default;strokeWidth=1;entryX=0;entryY=0.5;entryDx=0;entryDy=0;endFill=1;" edge="1" parent="1">
                    <mxGeometry width="50" height="50" relative="1" as="geometry">
                        <mxPoint x="340.0000000000002" y="237.0699999999997" as="sourcePoint"/>
                        <mxPoint x="360.0000000000002" y="237.01000000000022" as="targetPoint"/>
                    </mxGeometry>
                </mxCell>
                <mxCell id="184" value="&lt;font style=&quot;font-size: 12px&quot;&gt;clk&lt;/font&gt;" style="edgeLabel;html=1;align=center;verticalAlign=middle;resizable=0;points=[];fontSize=10;" vertex="1" connectable="0" parent="183">
                    <mxGeometry x="-0.5695" y="1" relative="1" as="geometry">
                        <mxPoint x="-14" as="offset"/>
                    </mxGeometry>
                </mxCell>
                <mxCell id="185" value="" style="endArrow=blockThin;html=1;rounded=1;fontSize=10;strokeColor=default;strokeWidth=1;entryX=0;entryY=0.5;entryDx=0;entryDy=0;endFill=1;" edge="1" parent="1">
                    <mxGeometry width="50" height="50" relative="1" as="geometry">
                        <mxPoint x="224.00000000000023" y="385.0599999999997" as="sourcePoint"/>
                        <mxPoint x="244.00000000000023" y="385.0000000000002" as="targetPoint"/>
                    </mxGeometry>
                </mxCell>
                <mxCell id="186" value="&lt;font style=&quot;font-size: 12px&quot;&gt;clk&lt;/font&gt;" style="edgeLabel;html=1;align=center;verticalAlign=middle;resizable=0;points=[];fontSize=10;" vertex="1" connectable="0" parent="185">
                    <mxGeometry x="-0.5695" y="1" relative="1" as="geometry">
                        <mxPoint x="-14" as="offset"/>
                    </mxGeometry>
                </mxCell>
                <mxCell id="187" value="" style="group" vertex="1" connectable="0" parent="1">
                    <mxGeometry x="610" y="150" width="40" height="63.38" as="geometry"/>
                </mxCell>
                <mxCell id="188" value="&lt;font style=&quot;font-size: 10px&quot;&gt;Q&lt;/font&gt;" style="text;html=1;resizable=0;autosize=1;align=center;verticalAlign=middle;points=[];fillColor=none;strokeColor=none;rounded=0;fontSize=12;" vertex="1" parent="187">
                    <mxGeometry x="18" y="2.5000000000000004" width="20" height="20" as="geometry"/>
                </mxCell>
                <mxCell id="189" value="&lt;font style=&quot;font-size: 10px&quot;&gt;D&lt;/font&gt;" style="text;html=1;resizable=0;autosize=1;align=center;verticalAlign=middle;points=[];fillColor=none;strokeColor=none;rounded=0;fontSize=12;" vertex="1" parent="187">
                    <mxGeometry y="2.5000000000000004" width="20" height="20" as="geometry"/>
                </mxCell>
                <mxCell id="190" value="" style="rounded=0;whiteSpace=wrap;html=1;fontSize=12;strokeWidth=1;fillColor=none;gradientColor=none;" vertex="1" parent="187">
                    <mxGeometry x="4" width="30" height="53.000000000000014" as="geometry"/>
                </mxCell>
                <mxCell id="191" value="" style="triangle;whiteSpace=wrap;html=1;fontSize=10;strokeWidth=1;fillColor=none;gradientColor=none;" vertex="1" parent="187">
                    <mxGeometry x="4" y="35.50000000000001" width="10" height="7.880000000000002" as="geometry"/>
                </mxCell>
                <mxCell id="213" value="&lt;font style=&quot;font-size: 10px&quot;&gt;ena&lt;/font&gt;" style="text;html=1;resizable=0;autosize=1;align=center;verticalAlign=middle;points=[];fillColor=none;strokeColor=none;rounded=0;dashed=1;" vertex="1" parent="187">
                    <mxGeometry x="4" y="35.38" width="30" height="20" as="geometry"/>
                </mxCell>
                <mxCell id="192" value="" style="endArrow=blockThin;html=1;rounded=1;fontSize=10;strokeColor=default;strokeWidth=1;entryX=0;entryY=0.25;entryDx=0;entryDy=0;endFill=1;" edge="1" parent="1" target="5">
                    <mxGeometry width="50" height="50" relative="1" as="geometry">
                        <mxPoint x="160" y="199" as="sourcePoint"/>
                        <mxPoint x="335" y="200.0000000000001" as="targetPoint"/>
                    </mxGeometry>
                </mxCell>
                <mxCell id="198" value="" style="endArrow=none;html=1;strokeWidth=1;" edge="1" parent="1">
                    <mxGeometry width="50" height="50" relative="1" as="geometry">
                        <mxPoint x="380" y="253" as="sourcePoint"/>
                        <mxPoint x="380" y="181" as="targetPoint"/>
                    </mxGeometry>
                </mxCell>
                <mxCell id="200" value="" style="endArrow=none;html=1;strokeWidth=1;" edge="1" parent="1">
                    <mxGeometry width="50" height="50" relative="1" as="geometry">
                        <mxPoint x="400" y="253" as="sourcePoint"/>
                        <mxPoint x="400" y="181" as="targetPoint"/>
                    </mxGeometry>
                </mxCell>
                <mxCell id="201" value="" style="endArrow=none;html=1;strokeWidth=1;" edge="1" parent="1">
                    <mxGeometry width="50" height="50" relative="1" as="geometry">
                        <mxPoint x="420" y="253" as="sourcePoint"/>
                        <mxPoint x="420" y="181" as="targetPoint"/>
                    </mxGeometry>
                </mxCell>
                <mxCell id="202" value="" style="endArrow=none;html=1;strokeWidth=1;" edge="1" parent="1">
                    <mxGeometry width="50" height="50" relative="1" as="geometry">
                        <mxPoint x="440" y="253" as="sourcePoint"/>
                        <mxPoint x="440" y="181" as="targetPoint"/>
                    </mxGeometry>
                </mxCell>
                <mxCell id="203" value="" style="endArrow=none;html=1;strokeWidth=1;startArrow=none;" edge="1" parent="1" source="209">
                    <mxGeometry width="50" height="50" relative="1" as="geometry">
                        <mxPoint x="460" y="253" as="sourcePoint"/>
                        <mxPoint x="460" y="181" as="targetPoint"/>
                    </mxGeometry>
                </mxCell>
                <mxCell id="204" value="" style="endArrow=none;html=1;strokeWidth=1;" edge="1" parent="1">
                    <mxGeometry width="50" height="50" relative="1" as="geometry">
                        <mxPoint x="480" y="253" as="sourcePoint"/>
                        <mxPoint x="480" y="181" as="targetPoint"/>
                    </mxGeometry>
                </mxCell>
                <mxCell id="205" value="" style="endArrow=none;html=1;strokeWidth=1;" edge="1" parent="1">
                    <mxGeometry width="50" height="50" relative="1" as="geometry">
                        <mxPoint x="500" y="253" as="sourcePoint"/>
                        <mxPoint x="500" y="181" as="targetPoint"/>
                    </mxGeometry>
                </mxCell>
                <mxCell id="206" value="" style="endArrow=none;html=1;strokeWidth=1;" edge="1" parent="1">
                    <mxGeometry width="50" height="50" relative="1" as="geometry">
                        <mxPoint x="520" y="253" as="sourcePoint"/>
                        <mxPoint x="520" y="181" as="targetPoint"/>
                    </mxGeometry>
                </mxCell>
                <mxCell id="207" value="" style="endArrow=none;html=1;strokeWidth=1;" edge="1" parent="1">
                    <mxGeometry width="50" height="50" relative="1" as="geometry">
                        <mxPoint x="540" y="253" as="sourcePoint"/>
                        <mxPoint x="540" y="181" as="targetPoint"/>
                    </mxGeometry>
                </mxCell>
                <mxCell id="210" value="rx_buffer(8 downto 1)" style="text;html=1;resizable=0;autosize=1;align=center;verticalAlign=middle;points=[];fillColor=none;strokeColor=none;rounded=0;dashed=1;" vertex="1" parent="1">
                    <mxGeometry x="459" y="140" width="130" height="20" as="geometry"/>
                </mxCell>
                <mxCell id="211" value="" style="endArrow=blockThin;html=1;rounded=1;fontSize=10;strokeColor=default;strokeWidth=1;entryX=0;entryY=0.5;entryDx=0;entryDy=0;endFill=1;" edge="1" parent="1">
                    <mxGeometry width="50" height="50" relative="1" as="geometry">
                        <mxPoint x="593.0000000000002" y="190.05999999999972" as="sourcePoint"/>
                        <mxPoint x="613.0000000000002" y="190.00000000000023" as="targetPoint"/>
                    </mxGeometry>
                </mxCell>
                <mxCell id="212" value="&lt;font style=&quot;font-size: 12px&quot;&gt;clk&lt;/font&gt;" style="edgeLabel;html=1;align=center;verticalAlign=middle;resizable=0;points=[];fontSize=10;" vertex="1" connectable="0" parent="211">
                    <mxGeometry x="-0.5695" y="1" relative="1" as="geometry">
                        <mxPoint x="-14" as="offset"/>
                    </mxGeometry>
                </mxCell>
                <mxCell id="214" value="" style="endArrow=blockThin;html=1;rounded=0;strokeColor=default;strokeWidth=1;exitX=-0.003;exitY=0.697;exitDx=0;exitDy=0;endFill=1;exitPerimeter=0;" edge="1" parent="1">
                    <mxGeometry width="50" height="50" relative="1" as="geometry">
                        <mxPoint x="644" y="162" as="sourcePoint"/>
                        <mxPoint x="890" y="162" as="targetPoint"/>
                    </mxGeometry>
                </mxCell>
                <mxCell id="215" value="rx_data" style="edgeLabel;html=1;align=center;verticalAlign=middle;resizable=0;points=[];fontSize=10;" vertex="1" connectable="0" parent="214">
                    <mxGeometry x="0.8036" y="-1" relative="1" as="geometry">
                        <mxPoint x="15" y="-10" as="offset"/>
                    </mxGeometry>
                </mxCell>
                <mxCell id="217" value="" style="shape=xor;whiteSpace=wrap;html=1;fontSize=10;fillColor=none;" vertex="1" parent="1">
                    <mxGeometry x="700" y="275" width="41" height="45" as="geometry"/>
                </mxCell>
                <mxCell id="219" value="" style="endArrow=blockThin;html=1;rounded=0;strokeColor=default;strokeWidth=1;exitX=0.045;exitY=1.008;exitDx=0;exitDy=0;endFill=1;exitPerimeter=0;entryX=0;entryY=0.5;entryDx=0;entryDy=0;" edge="1" parent="1" source="5" target="222">
                    <mxGeometry width="50" height="50" relative="1" as="geometry">
                        <mxPoint x="654" y="172" as="sourcePoint"/>
                        <mxPoint x="690" y="305" as="targetPoint"/>
                        <Array as="points">
                            <mxPoint x="369" y="280"/>
                            <mxPoint x="490" y="280"/>
                            <mxPoint x="490" y="305"/>
                        </Array>
                    </mxGeometry>
                </mxCell>
                <mxCell id="220" value="rx_buffer(9)&lt;br&gt;(stop bit)" style="edgeLabel;html=1;align=center;verticalAlign=middle;resizable=0;points=[];fontSize=10;" vertex="1" connectable="0" parent="219">
                    <mxGeometry x="0.8036" y="-1" relative="1" as="geometry">
                        <mxPoint x="-90" y="16" as="offset"/>
                    </mxGeometry>
                </mxCell>
                <mxCell id="222" value="" style="ellipse;whiteSpace=wrap;html=1;aspect=fixed;fillColor=#FFFFFF;" vertex="1" parent="1">
                    <mxGeometry x="698" y="300" width="10" height="10" as="geometry"/>
                </mxCell>
                <mxCell id="225" value="" style="endArrow=blockThin;html=1;rounded=0;strokeColor=default;strokeWidth=1;exitX=0.951;exitY=1.004;exitDx=0;exitDy=0;endFill=1;exitPerimeter=0;entryX=0.175;entryY=0.25;entryDx=0;entryDy=0;entryPerimeter=0;" edge="1" parent="1" source="5" target="217">
                    <mxGeometry width="50" height="50" relative="1" as="geometry">
                        <mxPoint x="379" y="263.5759999999999" as="sourcePoint"/>
                        <mxPoint x="708" y="315.0000000000001" as="targetPoint"/>
                        <Array as="points">
                            <mxPoint x="550" y="286"/>
                            <mxPoint x="570" y="286"/>
                        </Array>
                    </mxGeometry>
                </mxCell>
                <mxCell id="226" value="rx_buffer(0)&lt;br&gt;(start bit)" style="edgeLabel;html=1;align=center;verticalAlign=middle;resizable=0;points=[];fontSize=10;" vertex="1" connectable="0" parent="225">
                    <mxGeometry x="0.8036" y="-1" relative="1" as="geometry">
                        <mxPoint x="-100" y="-16" as="offset"/>
                    </mxGeometry>
                </mxCell>
                <mxCell id="227" value="" style="endArrow=blockThin;html=1;rounded=0;strokeColor=default;strokeWidth=1;endFill=1;exitX=1;exitY=0.25;exitDx=0;exitDy=0;" edge="1" parent="1" source="235">
                    <mxGeometry width="50" height="50" relative="1" as="geometry">
                        <mxPoint x="810" y="297" as="sourcePoint"/>
                        <mxPoint x="890" y="297" as="targetPoint"/>
                    </mxGeometry>
                </mxCell>
                <mxCell id="228" value="rx_err" style="edgeLabel;html=1;align=center;verticalAlign=middle;resizable=0;points=[];fontSize=10;" vertex="1" connectable="0" parent="227">
                    <mxGeometry x="0.8036" y="-1" relative="1" as="geometry">
                        <mxPoint x="15" y="-10" as="offset"/>
                    </mxGeometry>
                </mxCell>
                <mxCell id="232" value="" style="group" vertex="1" connectable="0" parent="1">
                    <mxGeometry x="776" y="283" width="38" height="53" as="geometry"/>
                </mxCell>
                <mxCell id="233" value="&lt;font style=&quot;font-size: 10px&quot;&gt;Q&lt;/font&gt;" style="text;html=1;resizable=0;autosize=1;align=center;verticalAlign=middle;points=[];fillColor=none;strokeColor=none;rounded=0;fontSize=12;" vertex="1" parent="232">
                    <mxGeometry x="18" y="2.5" width="20" height="20" as="geometry"/>
                </mxCell>
                <mxCell id="234" value="&lt;font style=&quot;font-size: 10px&quot;&gt;D&lt;/font&gt;" style="text;html=1;resizable=0;autosize=1;align=center;verticalAlign=middle;points=[];fillColor=none;strokeColor=none;rounded=0;fontSize=12;" vertex="1" parent="232">
                    <mxGeometry y="2.5" width="20" height="20" as="geometry"/>
                </mxCell>
                <mxCell id="236" value="" style="triangle;whiteSpace=wrap;html=1;fontSize=10;strokeWidth=1;fillColor=none;gradientColor=none;" vertex="1" parent="232">
                    <mxGeometry x="4" y="35.5" width="10" height="7.88" as="geometry"/>
                </mxCell>
                <mxCell id="237" value="" style="endArrow=blockThin;html=1;rounded=0;strokeColor=default;strokeWidth=1;endFill=1;exitX=1;exitY=0.5;exitDx=0;exitDy=0;exitPerimeter=0;entryX=0;entryY=0.25;entryDx=0;entryDy=0;" edge="1" parent="1" source="217" target="235">
                    <mxGeometry width="50" height="50" relative="1" as="geometry">
                        <mxPoint x="820" y="303.25" as="sourcePoint"/>
                        <mxPoint x="900" y="303" as="targetPoint"/>
                    </mxGeometry>
                </mxCell>
                <mxCell id="240" value="" style="endArrow=blockThin;html=1;rounded=0;strokeColor=default;strokeWidth=1;endFill=1;" edge="1" parent="1">
                    <mxGeometry width="50" height="50" relative="1" as="geometry">
                        <mxPoint x="620" y="429" as="sourcePoint"/>
                        <mxPoint x="795" y="339" as="targetPoint"/>
                        <Array as="points">
                            <mxPoint x="795" y="429"/>
                        </Array>
                    </mxGeometry>
                </mxCell>
                <mxCell id="209" value="rx_buffer(9 downto 0)" style="text;html=1;resizable=0;autosize=1;align=center;verticalAlign=middle;points=[];fillColor=default;strokeColor=none;rounded=0;dashed=1;" vertex="1" parent="1">
                    <mxGeometry x="395" y="207" width="130" height="20" as="geometry"/>
                </mxCell>
                <mxCell id="242" value="" style="endArrow=none;html=1;strokeWidth=1;" edge="1" parent="1" target="209">
                    <mxGeometry width="50" height="50" relative="1" as="geometry">
                        <mxPoint x="460" y="253" as="sourcePoint"/>
                        <mxPoint x="460" y="181" as="targetPoint"/>
                    </mxGeometry>
                </mxCell>
            </root>
        </mxGraphModel>
    </diagram>
</mxfile>